<svg width="9" height="9" viewBox="0 0 9 9" fill="none" xmlns="http://www.w3.org/2000/svg">
<path d="M4.5275 0.642334C2.3005 0.642334 0.48877 2.45633 0.48877 4.68598C0.48877 6.91568 2.30054 8.72967 4.5275 8.72967C6.75446 8.72967 8.56619 6.91568 8.56619 4.68598C8.56619 2.45625 6.75438 0.642334 4.5275 0.642334ZM4.15246 4.06813H4.90254C5.74864 4.06813 6.43696 4.75696 6.43696 5.60364C6.43696 6.37865 5.86004 7.02103 5.11344 7.12423V7.34431C5.11344 7.66791 4.85109 7.93025 4.5275 7.93025C4.2039 7.93025 3.94156 7.66791 3.94156 7.34431V7.13908H3.79207C3.14472 7.13908 2.618 6.61212 2.618 5.96439C2.618 5.64079 2.88034 5.37845 3.20394 5.37845C3.52753 5.37845 3.78988 5.64079 3.78988 5.96439L4.9025 5.9672C5.10242 5.9672 5.26504 5.80407 5.26504 5.6036C5.26504 5.40313 5.10242 5.24001 4.9025 5.24001H4.15242C3.30632 5.24001 2.618 4.55122 2.618 3.70453C2.618 2.92949 3.19491 2.28711 3.94156 2.1839V2.02769C3.94156 1.7041 4.2039 1.44175 4.5275 1.44175C4.85109 1.44175 5.11344 1.7041 5.11344 2.02769V2.16902H5.26289C5.91024 2.16902 6.43696 2.69601 6.43696 3.34375C6.43696 3.66735 6.17462 3.92969 5.85102 3.92969C5.52743 3.92969 5.26508 3.66735 5.26508 3.34375C5.26508 3.34281 5.265 3.34242 5.265 3.34242L4.15246 3.3409C3.95254 3.3409 3.78992 3.50402 3.78992 3.70453C3.78992 3.905 3.95254 4.06813 4.15246 4.06813Z" fill="#16DBCC"/>
</svg>
