<svg width="157" height="33" viewBox="0 0 157 33" fill="none" xmlns="http://www.w3.org/2000/svg">
<path d="M27.6391 10.7989L14.4367 0.583071C14.3161 0.489551 14.1648 0.433411 14.0002 0.433411C13.8357 0.433411 13.6843 0.489551 13.5634 0.583071L0.361364 10.7989C0.126164 10.9806 0.0210239 11.2974 0.122104 11.5939C0.224024 11.8903 0.500944 12.0768 0.797604 12.0768H27.2023C27.4992 12.0768 27.7763 11.8903 27.8778 11.5939C27.9787 11.2974 27.8736 10.9806 27.6391 10.7989ZM8.26927 8.81045L14.0002 4.37553L19.7311 8.81045H8.26927Z" fill="#FEAA09"/>
<path d="M8.88007 22.4608H8.16215V14.9056C8.68141 14.9056 9.10659 14.4805 9.10659 13.9613C9.10659 13.4415 8.68141 13.0169 8.16215 13.0169H4.50339C3.98385 13.0169 3.55853 13.4415 3.55853 13.9613C3.55853 14.4805 3.98371 14.9056 4.50339 14.9056V22.4608H3.78575C3.66073 22.4608 3.55853 22.5624 3.55853 22.687V23.14C3.55853 23.2648 3.66059 23.3668 3.78575 23.3668H8.88007C9.00453 23.3668 9.10659 23.2648 9.10659 23.14V22.687C9.10659 22.5623 9.00439 22.4608 8.88007 22.4608Z" fill="#FEAA09"/>
<path d="M16.547 22.4608H15.8297V14.9056C16.3488 14.9056 16.7738 14.4805 16.7738 13.9613C16.7738 13.4415 16.3488 13.0169 15.8297 13.0169H12.1706C11.6511 13.0169 11.2262 13.4415 11.2262 13.9613C11.2262 14.4805 11.6511 14.9056 12.1706 14.9056V22.4608H11.4531C11.3281 22.4608 11.2262 22.5624 11.2262 22.687V23.14C11.2262 23.2648 11.3281 23.3668 11.4531 23.3668H16.5472C16.6719 23.3668 16.774 23.2648 16.774 23.14V22.687C16.7738 22.5623 16.6718 22.4608 16.547 22.4608Z" fill="#FEAA09"/>
<path d="M24.2145 22.4608H23.4966V14.9056C24.0162 14.9056 24.4413 14.4805 24.4413 13.9613C24.4413 13.4415 24.0162 13.0169 23.4966 13.0169H19.838C19.3187 13.0169 18.8936 13.4415 18.8936 13.9613C18.8936 14.4805 19.3187 14.9056 19.838 14.9056V22.4608H19.1201C18.9959 22.4608 18.8936 22.5624 18.8936 22.687V23.14C18.8936 23.2648 18.9959 23.3668 19.1201 23.3668H24.2145C24.3393 23.3668 24.4413 23.2648 24.4413 23.14V22.687C24.4413 22.5623 24.3393 22.4608 24.2145 22.4608Z" fill="#FEAA09"/>
<path d="M25.6669 25.9333V24.7671C25.6669 24.6472 25.6213 24.5278 25.5298 24.4369C25.4391 24.3455 25.3197 24.3003 25.2003 24.3003H2.80028C2.68086 24.3003 2.5613 24.3454 2.47016 24.4369C2.3793 24.5278 2.33352 24.6472 2.33352 24.7671V25.9333H0.46676C0.34706 25.9333 0.22764 25.979 0.13664 26.0699C0.0455 26.1613 0 26.2807 0 26.4V27.5664H28V26.4C28 26.2806 27.9544 26.1613 27.8631 26.0699C27.7726 25.9792 27.6529 25.9333 27.5334 25.9333H25.6669Z" fill="#FEAA09"/>
<path d="M45.65 24.45C49.25 24.45 51.625 22.6 51.625 19.775C51.625 16.375 48.8 15.925 46.65 15.55C45.375 15.325 44.35 15.125 44.35 14.375C44.35 13.75 44.85 13.375 45.6 13.375C46.425 13.375 47 13.775 47 14.625H51.375C51.325 11.9 49.075 10.075 45.65 10.075C42.2 10.075 39.875 11.825 39.875 14.525C39.875 17.8 42.65 18.425 44.75 18.775C46.05 18.975 47.075 19.2 47.075 19.975C47.075 20.675 46.425 21.025 45.75 21.025C44.875 21.025 44.175 20.575 44.175 19.575H39.7C39.75 22.5 41.975 24.45 45.65 24.45ZM60.5795 24.45C64.9795 24.45 68.1545 21.425 68.1545 17.25C68.1545 13.075 64.9795 10.075 60.5795 10.075C56.1795 10.075 53.0295 13.075 53.0295 17.25C53.0295 21.425 56.1795 24.45 60.5795 24.45ZM60.5795 20.275C58.9045 20.275 57.6795 19.05 57.6795 17.275C57.6795 15.475 58.9045 14.25 60.5795 14.25C62.2795 14.25 63.5045 15.5 63.5045 17.275C63.5045 19.05 62.2795 20.275 60.5795 20.275ZM79.1137 10.725H75.9387V9.825C75.9387 9.125 76.3387 8.725 77.0387 8.725H79.0887V5.15H75.8387C72.9887 5.15 71.4887 6.725 71.4887 9.45V10.725H69.1887L69.2137 14.375H71.4387V24H76.0887V14.375H79.1137V10.725ZM88.3512 19.95C87.3762 19.95 86.7762 19.35 86.7762 18.4V14.1H90.0512V10.5H86.6762V6.575H85.7012L79.6512 13V14.1H82.1262V19.175C82.1262 22.175 83.9512 24 86.9262 24H90.1262V19.95H88.3512ZM100.255 10.1C99.0055 10.1 97.8805 10.425 96.9055 11.025V5.625H92.3055V24H95.7555L96.1805 23C97.2805 23.925 98.6805 24.45 100.255 24.45C104.405 24.45 107.355 21.475 107.355 17.275C107.355 13.075 104.405 10.1 100.255 10.1ZM99.6305 20.325C97.9055 20.325 96.6055 19.025 96.6055 17.275C96.6055 15.5 97.9055 14.2 99.6305 14.2C101.38 14.2 102.655 15.5 102.655 17.275C102.655 19.025 101.355 20.325 99.6305 20.325ZM120.369 10.5L119.894 11.55C118.794 10.625 117.369 10.1 115.769 10.1C111.644 10.1 108.694 13.075 108.694 17.25C108.694 21.45 111.644 24.45 115.769 24.45C117.344 24.45 118.744 23.95 119.844 23.05L120.244 24H123.844V10.5H120.369ZM116.394 20.35C114.644 20.35 113.369 19.025 113.369 17.25C113.369 15.5 114.644 14.2 116.394 14.2C118.144 14.2 119.419 15.5 119.419 17.25C119.419 19.025 118.144 20.35 116.394 20.35ZM134.928 10.125C133.178 10.125 131.678 10.775 130.678 11.9L130.053 10.5H126.778V24H131.428V16.8C131.428 15.075 132.253 14.075 133.703 14.075C134.878 14.075 135.478 14.85 135.478 16.425V24H140.128V15.775C140.128 12.35 138.053 10.125 134.928 10.125ZM156.616 24L151.966 16.95L156.191 10.5H150.966L147.741 15.8V5.625H143.091V24H147.741V18.3L151.116 24H156.616Z" fill="#343C6A"/>
</svg>
